<svg width="300" height="300" viewBox="0 0 300 300" xmlns="http://www.w3.org/2000/svg">
  <!-- Konar -->
  <g fill="#8B4513">
    <circle cx="150" cy="200" r="3"/>
    <circle cx="152" cy="195" r="4"/>
    <circle cx="155" cy="190" r="3"/>
    <circle cx="158" cy="185" r="4"/>
    <circle cx="160" cy="180" r="3"/>
    <circle cx="162" cy="175" r="4"/>
    <circle cx="165" cy="170" r="3"/>
    <circle cx="168" cy="165" r="4"/>
    <circle cx="170" cy="160" r="3"/>
    <circle cx="172" cy="155" r="4"/>
    <circle cx="175" cy="150" r="3"/>
    <circle cx="178" cy="145" r="4"/>
    <circle cx="180" cy="140" r="3"/>
    <circle cx="182" cy="135" r="4"/>
    <circle cx="185" cy="130" r="3"/>
    <circle cx="188" cy="125" r="4"/>
    <circle cx="190" cy="120" r="3"/>
    <circle cx="192" cy="115" r="4"/>
    <circle cx="195" cy="110" r="3"/>
    <circle cx="198" cy="105" r="4"/>
    <circle cx="200" cy="100" r="3"/>
    <circle cx="145" cy="195" r="3"/>
    <circle cx="143" cy="190" r="4"/>
    <circle cx="140" cy="185" r="3"/>
    <circle cx="138" cy="180" r="4"/>
    <circle cx="135" cy="175" r="3"/>
    <circle cx="133" cy="170" r="4"/>
    <circle cx="130" cy="165" r="3"/>
    <circle cx="128" cy="160" r="4"/>
    <circle cx="125" cy="155" r="3"/>
    <circle cx="123" cy="150" r="4"/>
    <circle cx="120" cy="145" r="3"/>
    <circle cx="118" cy="140" r="4"/>
    <circle cx="115" cy="135" r="3"/>
    <circle cx="113" cy="130" r="4"/>
    <circle cx="110" cy="125" r="3"/>
    <circle cx="108" cy="120" r="4"/>
    <circle cx="105" cy="115" r="3"/>
    <circle cx="103" cy="110" r="4"/>
    <circle cx="100" cy="105" r="3"/>
  </g>

  <!-- Liść lewy (mniejszy) -->
  <g fill="#7CFC00">
    <circle cx="100" cy="150" r="2"/>
    <circle cx="105" cy="145" r="3"/>
    <circle cx="110" cy="140" r="2"/>
    <circle cx="105" cy="135" r="3"/>
    <circle cx="100" cy="130" r="2"/>
    <circle cx="95" cy="135" r="3"/>
    <circle cx="90" cy="140" r="2"/>
    <circle cx="95" cy="145" r="3"/>
    <circle cx="100" cy="150" r="2"/>
    <circle cx="105" cy="155" r="3"/>
    <circle cx="110" cy="150" r="2"/>
    <circle cx="105" cy="145" r="3"/>
    <circle cx="100" cy="140" r="2"/>
    <circle cx="95" cy="135" r="3"/>
    <circle cx="90" cy="130" r="2"/>
    <circle cx="95" cy="125" r="3"/>
    <circle cx="100" cy="120" r="2"/>
    <circle cx="105" cy="125" r="3"/>
    <circle cx="110" cy="130" r="2"/>
    <circle cx="105" cy="135" r="3"/>
    <circle cx="100" cy="140" r="2"/>
    <circle cx="95" cy="145" r="3"/>
    <circle cx="90" cy="150" r="2"/>
    <circle cx="95" cy="155" r="3"/>
    <circle cx="100" cy="160" r="2"/>
    <circle cx="105" cy="155" r="3"/>
    <circle cx="110" cy="150" r="2"/>
    <circle cx="105" cy="145" r="3"/>
    <circle cx="100" cy="140" r="2"/>
    <circle cx="95" cy="135" r="3"/>
    <circle cx="90" cy="130" r="2"/>
    <circle cx="95" cy="125" r="3"/>
    <circle cx="100" cy="120" r="2"/>
    <circle cx="105" cy="125" r="3"/>
    <circle cx="110" cy="130" r="2"/>
    <circle cx="105" cy="135" r="3"/>
    <circle cx="100" cy="140" r="2"/>
    <circle cx="95" cy="145" r="3"/>
    <circle cx="90" cy="150" r="2"/>
    <circle cx="95" cy="155" r="3"/>
    <circle cx="100" cy="160" r="2"/>
    <circle cx="105" cy="155" r="3"/>
    <circle cx="110" cy="150" r="2"/>
    <circle cx="105" cy="145" r="3"/>
    <circle cx="100" cy="140" r="2"/>
    <circle cx="95" cy="135" r="3"/>
    <circle cx="90" cy="130" r="2"/>
    <circle cx="95" cy="125" r="3"/>
    <circle cx="100" cy="120" r="2"/>
  </g>

  <!-- Liść prawy (większy) -->
  <g fill="#228B22">
    <circle cx="200" cy="150" r="3"/>
    <circle cx="205" cy="145" r="4"/>
    <circle cx="210" cy="140" r="3"/>
    <circle cx="215" cy="135" r="4"/>
    <circle cx="220" cy="130" r="3"/>
    <circle cx="225" cy="125" r="4"/>
    <circle cx="230" cy="120" r="3"/>
    <circle cx="225" cy="115" r="4"/>
    <circle cx="220" cy="110" r="3"/>
    <circle cx="215" cy="105" r="4"/>
    <circle cx="210" cy="100" r="3"/>
    <circle cx="205" cy="105" r="4"/>
    <circle cx="200" cy="110" r="3"/>
    <circle cx="195" cy="115" r="4"/>
    <circle cx="190" cy="120" r="3"/>
    <circle cx="185" cy="125" r="4"/>
    <circle cx="180" cy="130" r="3"/>
    <circle cx="185" cy="135" r="4"/>
    <circle cx="190" cy="140" r="3"/>
    <circle cx="195" cy="145" r="4"/>
    <circle cx="200" cy="150" r="3"/>
    <circle cx="205" cy="155" r="4"/>
    <circle cx="210" cy="150" r="3"/>
    <circle cx="205" cy="145" r="4"/>
    <circle cx="200" cy="140" r="3"/>
    <circle cx="195" cy="135" r="4"/>
    <circle cx="190" cy="130" r="3"/>
    <circle cx="185" cy="125" r="4"/>
    <circle cx="180" cy="120" r="3"/>
    <circle cx="185" cy="115" r="4"/>
    <circle cx="190" cy="110" r="3"/>
    <circle cx="195" cy="105" r="4"/>
    <circle cx="200" cy="100" r="3"/>
    <circle cx="205" cy="105" r="4"/>
    <circle cx="210" cy="110" r="3"/>
    <circle cx="215" cy="115" r="4"/>
    <circle cx="220" cy="120" r="3"/>
    <circle cx="225" cy="125" r="4"/>
    <circle cx="230" cy="130" r="3"/>
    <circle cx="225" cy="135" r="4"/>
    <circle cx="220" cy="140" r="3"/>
    <circle cx="215" cy="145" r="4"/>
    <circle cx="210" cy="150" r="3"/>
    <circle cx="205" cy="155" r="4"/>
    <circle cx="200" cy="160" r="3"/>
    <circle cx="205" cy="155" r="4"/>
    <circle cx="210" cy="150" r="3"/>
    <circle cx="205" cy="145" r="4"/>
    <circle cx="200" cy="140" r="3"/>
    <circle cx="195" cy="135" r="4"/>
    <circle cx="190" cy="130" r="3"/>
    <circle cx="185" cy="125" r="4"/>
    <circle cx="180" cy="120" r="3"/>
    <circle cx="185" cy="115" r="4"/>
    <circle cx="190" cy="110" r="3"/>
    <circle cx="195" cy="105" r="4"/>
    <circle cx="200" cy="100" r="3"/>
    <circle cx="205" cy="105" r="4"/>
    <circle cx="210" cy="110" r="3"/>
    <circle cx="215" cy="115" r="4"/>
    <circle cx="220" cy="120" r="3"/>
    <circle cx="225" cy="125" r="4"/>
    <circle cx="230" cy="130" r="3"/>
    <circle cx="225" cy="135" r="4"/>
    <circle cx="220" cy="140" r="3"/>
    <circle cx="215" cy="145" r="4"/>
    <circle cx="210" cy="150" r="3"/>
    <circle cx="205" cy="155" r="4"/>
    <circle cx="200" cy="160" r="3"/>
  </g>

  <!-- Liść górny -->
  <g fill="#32CD32">
    <circle cx="150" cy="80" r="2"/>
    <circle cx="155" cy="75" r="3"/>
    <circle cx="160" cy="70" r="2"/>
    <circle cx="165" cy="65" r="3"/>
    <circle cx="170" cy="60" r="2"/>
    <circle cx="175" cy="55" r="3"/>
    <circle cx="180" cy="50" r="2"/>
    <circle cx="175" cy="45" r="3"/>
    <circle cx="170" cy="40" r="2"/>
    <circle cx="165" cy="35" r="3"/>
    <circle cx="160" cy="30" r="2"/>
    <circle cx="155" cy="35" r="3"/>
    <circle cx="150" cy="40" r="2"/>
    <circle cx="145" cy="45" r="3"/>
    <circle cx="140" cy="50" r="2"/>
    <circle cx="145" cy="55" r="3"/>
    <circle cx="150" cy="60" r="2"/>
    <circle cx="155" cy="65" r="3"/>
    <circle cx="160" cy="70" r="2"/>
    <circle cx="155" cy="75" r="3"/>
    <circle cx="150" cy="80" r="2"/>
    <circle cx="145" cy="75" r="3"/>
    <circle cx="140" cy="70" r="2"/>
    <circle cx="145" cy="65" r="3"/>
    <circle cx="150" cy="60" r="2"/>
    <circle cx="155" cy="55" r="3"/>
    <circle cx="160" cy="50" r="2"/>
    <circle cx="165" cy="45" r="3"/>
    <circle cx="170" cy="40" r="2"/>
    <circle cx="175" cy="35" r="3"/>
    <circle cx="180" cy="30" r="2"/>
    <circle cx="175" cy="35" r="3"/>
    <circle cx="170" cy="40" r="2"/>
    <circle cx="165" cy="45" r="3"/>
    <circle cx="160" cy="50" r="2"/>
    <circle cx="155" cy="55" r="3"/>
    <circle cx="150" cy="60" r="2"/>
    <circle cx="145" cy="65" r="3"/>
    <circle cx="140" cy="70" r="2"/>
    <circle cx="145" cy="75" r="3"/>
    <circle cx="150" cy="80" r="2"/>
  </g>
</svg>
